# Blender v2.78 (sub 0) OBJ File: ''
# www.blender.org
o Sphere001
v 48.001450 -0.411900 -0.000000
v 46.397545 -0.394100 -1.740200
v 46.397545 0.406400 -1.507100
v 46.397545 0.992500 -0.870100
v 46.397545 1.207000 0.000000
v 46.397545 0.992500 0.870100
v 46.397545 0.406400 1.507100
v 46.397545 -0.394100 1.740200
v 46.397545 -1.194600 1.507100
v 46.397545 -1.780600 0.870100
v 46.397545 -1.995100 -0.000000
v 46.397545 -1.780600 -0.870100
v 46.397545 -1.194600 -1.507100
v 26.281746 2.321401 -5.407899
v 45.344749 0.670000 -1.969600
v 45.344749 -0.376200 -2.274300
v 26.281746 -0.376199 -6.244500
v 26.281746 4.296101 -3.122199
v 45.344749 1.435800 -1.137100
v 26.281746 5.018900 0.000001
v 45.344749 1.716200 0.000000
v 26.281746 4.296100 3.122201
v 45.344749 1.435800 1.137100
v 26.281746 2.321399 5.407900
v 45.344749 0.670000 1.969600
v 26.281746 -0.376201 6.244500
v 45.344749 -0.376200 2.274300
v 26.281746 -3.073801 5.407899
v 45.344749 -1.422400 1.969600
v 26.281746 -5.048501 3.122199
v 45.344749 -2.188300 1.137100
v 26.281746 -5.771400 -0.000001
v 45.344749 -2.468600 -0.000000
v 26.281746 -5.048500 -3.122201
v 45.344749 -2.188300 -1.137100
v 26.281746 -3.073799 -5.407900
v 45.344749 -1.422400 -1.969600
v 8.483345 -0.376199 -7.957500
v 8.483345 3.381801 -6.891399
v 8.483345 6.132801 -3.978699
v 8.483345 7.139700 0.000001
v 8.483345 6.132800 3.978701
v 8.483345 3.381799 6.891400
v 8.483345 -0.376201 7.957500
v 8.483345 -4.134201 6.891399
v 8.483345 -6.885201 3.978699
v 8.483345 -7.892100 -0.000001
v 8.483345 -6.885200 -3.978701
v 8.483345 -4.134199 -6.891400
v -37.462254 2.330901 -5.721799
v -22.858852 3.472801 -7.246200
v -22.858852 -0.376199 -8.367200
v -37.462254 -0.708399 -6.607000
v -37.462254 4.555800 -3.303499
v -22.858852 6.290401 -4.183599
v -37.462254 5.370100 0.000001
v -22.858852 7.321700 0.000001
v -37.462254 4.555799 3.303501
v -22.858852 6.290400 4.183601
v -37.462254 2.330899 5.721800
v -22.858852 3.472799 7.246201
v -37.462254 -0.708401 6.607000
v -22.858852 -0.376201 8.367200
v -37.462254 -3.747601 5.721799
v -22.858852 -4.225201 7.246200
v -37.462254 -5.972500 3.303499
v -22.858852 -7.042800 4.183599
v -37.462254 -6.786900 -0.000001
v -22.858852 -8.074100 -0.000001
v -37.462254 -5.972499 -3.303501
v -22.858852 -7.042799 -4.183601
v -37.462254 -3.747599 -5.721800
v -22.858852 -4.225199 -7.246201
v -9.315052 3.753701 -7.425000
v -9.315052 -0.376199 -8.573600
v -9.315052 6.776900 -4.286799
v -9.315052 7.883500 0.000001
v -9.315052 6.776899 4.286801
v -9.315052 3.753699 7.425001
v -9.315052 -0.376201 8.573600
v -9.315052 -4.506102 7.424999
v -9.315052 -7.529400 4.286798
v -9.315052 -8.636000 -0.000001
v -9.315052 -7.529399 -4.286801
v -9.315052 -4.506099 -7.425001
vt 0.1125 0.5130
vt 0.1676 0.7037
vt 0.8473 0.4884
vt 0.8040 0.6824
vt 0.7922 0.2977
vt 0.6535 0.1613
vt 0.2861 0.1736
vt 0.4682 0.1159
vt 0.1559 0.3190
vt 0.3064 0.8400
vt 0.6738 0.8277
vt 0.4917 0.8854
vt 0.9947 0.9995
vt 1.2434 0.9808
vt 1.3237 0.9808
vt 0.4978 0.5001
vt 0.5446 0.4107
vt 0.5812 0.4466
vt 1.4074 0.9808
vt 1.4947 0.9808
vt 1.9947 0.9995
vt 1.5823 0.9808
vt 0.5843 0.5479
vt 0.5500 0.5862
vt 0.6663 0.9808
vt 0.7468 0.9808
vt 0.8267 0.9808
vt 0.9092 0.9808
vt 0.9947 0.9808
vt 1.0804 0.9808
vt 0.4136 0.4522
vt 0.4479 0.4139
vt 1.1633 0.9808
vt 0.3252 0.7456
vt 0.2451 0.9684
vt 0.2451 0.7456
vt 0.4083 0.7456
vt 0.3252 0.9684
vt 0.4947 0.7456
vt 0.4083 0.9684
vt 0.5813 0.9684
vt 0.5813 0.7456
vt 0.6648 0.9684
vt 0.6648 0.7456
vt 0.7451 0.9684
vt 0.7451 0.7456
vt 0.8252 0.7456
vt 0.9083 0.7456
vt 0.8252 0.9684
vt 0.9947 0.7456
vt 0.9083 0.9684
vt 1.0813 0.9684
vt 1.0813 0.7456
vt 0.1648 0.9684
vt 0.0813 0.7456
vt 0.1648 0.7456
vt 0.2451 0.5376
vt 0.3270 0.5376
vt 0.4101 0.5376
vt 0.5795 0.5376
vt 0.6630 0.5376
vt 0.7451 0.5376
vt 0.8270 0.5376
vt 0.9101 0.5376
vt 1.0795 0.5376
vt 0.1630 0.5376
vt 0.3177 0.0005
vt 0.2451 0.1712
vt 0.2368 0.0005
vt 0.4036 0.0005
vt 0.3252 0.1712
vt 0.4947 0.0005
vt 0.4083 0.1712
vt 0.5813 0.1712
vt 0.5860 0.0005
vt 0.6648 0.1712
vt 0.6724 0.0005
vt 0.7451 0.1712
vt 0.7534 0.0005
vt 0.8252 0.1712
vt 0.8324 0.0005
vt 0.9083 0.1712
vt 0.9125 0.0005
vt 0.9947 0.1712
vt 0.9947 0.0005
vt 1.0771 0.0005
vt 0.1576 0.0005
vt 0.0813 0.1712
vt 0.0771 0.0005
vt 0.1648 0.1712
vt 0.2451 0.3295
vt 0.3284 0.3295
vt 0.4947 0.1712
vt 0.4115 0.3295
vt 0.5781 0.3295
vt 0.4947 0.3295
vt 0.6617 0.3295
vt 0.7451 0.3295
vt 0.8284 0.3295
vt 0.9115 0.3295
vt 1.0781 0.3295
vt 0.9947 0.3295
vt 0.1617 0.3295
vt 0.0781 0.3295
vt 0.4947 0.5376
vt 0.9947 0.5376
vt 0.0795 0.5376
vt 0.2434 0.9808
vt 0.3237 0.9808
vt 1.4947 0.9684
vt 1.4083 0.9684
vt 0.5823 0.9808
vt 0.4947 0.9684
vt 0.9947 0.9684
vt 0.1633 0.9808
vt 0.0813 0.9684
vt 1.1648 0.9684
vt 1.0813 0.1712
vt 0.4074 0.9808
vt 0.4947 0.9808
vt 0.0804 0.9808
vt 1.2451 0.9684
vn -1.0000 0.0000 0.0000
vn 1.0000 -0.0036 -0.0000
vn 0.8756 -0.0019 -0.4830
vn 0.8770 0.2387 -0.4171
vn 0.8789 0.4125 -0.2394
vn 0.8775 0.4796 -0.0000
vn 0.8789 0.4125 0.2394
vn 0.8770 0.2387 0.4171
vn 0.8756 -0.0044 0.4830
vn 0.8716 -0.2462 0.4239
vn 0.8695 -0.4281 0.2464
vn 0.8664 -0.4994 0.0000
vn 0.8695 -0.4281 -0.2464
vn 0.8716 -0.2462 -0.4239
vn 0.3574 0.4805 -0.8009
vn 0.6354 0.0021 -0.7722
vn 0.3580 0.0004 -0.9337
vn 0.3666 0.8108 -0.4563
vn 0.2464 0.1755 -0.9531
vn 0.3718 0.9282 -0.0138
vn 0.2371 0.6241 -0.7445
vn 0.3329 0.9387 0.0894
vn 0.3671 0.8170 0.4447
vn 0.3388 0.7648 0.5480
vn 0.3577 0.4902 0.7949
vn 0.3184 0.3526 0.8799
vn 0.3580 -0.0000 0.9337
vn 0.3574 -0.4805 0.8009
vn 0.3666 -0.8108 0.4564
vn 0.2408 -0.1756 0.9546
vn 0.3718 -0.9282 0.0138
vn 0.2277 -0.6271 0.7449
vn 0.3244 -0.9412 -0.0943
vn 0.3671 -0.8170 -0.4447
vn 0.3342 -0.7640 -0.5520
vn 0.3577 -0.4902 -0.7948
vn 0.0835 -0.1015 -0.9913
vn 0.1859 0.4987 -0.8466
vn 0.2096 0.8520 -0.4798
vn 0.2058 0.8413 0.4998
vn 0.1823 0.4832 0.8563
vn 0.1690 -0.0000 0.9856
vn 0.1859 -0.4987 0.8466
vn 0.2096 -0.8520 0.4798
vn 0.2058 -0.8414 -0.4997
vn 0.1823 -0.4832 -0.8563
vn -0.3269 0.4652 -0.8226
vn -0.1694 0.0031 -0.9855
vn -0.2992 -0.0104 -0.9541
vn -0.3472 0.8098 -0.4729
vn -0.1055 0.6213 -0.7765
vn -0.3528 0.9357 -0.0000
vn -0.1112 0.9326 -0.3434
vn -0.0850 0.8021 0.5911
vn -0.3472 0.8098 0.4729
vn -0.0728 0.4201 0.9045
vn -0.3269 0.4652 0.8226
vn -0.0910 -0.0983 0.9910
vn -0.2992 -0.0104 0.9541
vn -0.1145 -0.5993 0.7923
vn -0.2711 -0.4896 0.8287
vn -0.1147 -0.9179 0.3798
vn -0.2504 -0.8413 0.4791
vn -0.0879 -0.9899 -0.1113
vn -0.2448 -0.9696 -0.0000
vn -0.2504 -0.8413 -0.4791
vn -0.2711 -0.4896 -0.8287
vn -0.0339 -0.8221 -0.5684
vn -0.0353 -0.4350 -0.8997
vn 0.0242 -0.0013 -0.9997
vn -0.0258 0.5016 -0.8647
vn -0.1274 0.9816 -0.1424
vn -0.0290 0.8699 -0.4924
vn 0.0049 0.8576 0.5142
vn 0.0014 1.0000 -0.0010
vn 0.0163 0.4876 0.8729
vn 0.0242 0.0013 0.9997
vn -0.0258 -0.5016 0.8647
vn -0.0290 -0.8699 0.4925
vn 0.0049 -0.8577 -0.5142
vn 0.0014 -1.0000 0.0010
vn 0.0163 -0.4876 -0.8729
vn 0.0811 0.9870 -0.1389
vn 0.0811 -0.9870 0.1389
vn 0.5050 0.8151 0.2840
vn 0.4939 -0.8227 -0.2816
s off
f 68/1/1 66/2/1 56/3/1
f 58/4/1 56/3/1 66/2/1
f 54/5/1 50/6/1 72/7/1
f 53/8/1 72/7/1 50/6/1
f 70/9/1 68/1/1 56/3/1
f 66/2/1 64/10/1 60/11/1
f 62/12/1 60/11/1 64/10/1
f 56/3/1 54/5/1 70/9/1
f 72/7/1 70/9/1 54/5/1
f 66/2/1 60/11/1 58/4/1
s 1
f 1/13/2 2/14/3 3/15/4
f 1/16/2 3/17/4 4/18/5
f 1/13/2 4/19/5 5/20/6
f 1/21/2 5/20/6 6/22/7
f 1/16/2 6/23/7 7/24/8
f 1/13/2 7/25/8 8/26/9
f 1/13/2 8/26/9 9/27/10
f 1/13/2 9/27/10 10/28/11
f 1/13/2 10/28/11 11/29/12
f 1/13/2 11/29/12 12/30/13
f 1/16/2 12/31/13 13/32/14
f 1/13/2 13/33/14 2/14/3
f 14/34/15 16/35/16 17/36/17
f 18/37/18 15/38/19 14/34/15
f 20/39/20 19/40/21 18/37/18
f 23/41/22 20/39/20 22/42/23
f 25/43/24 22/42/23 24/44/25
f 27/45/26 24/44/25 26/46/27
f 28/47/28 27/45/26 26/46/27
f 30/48/29 29/49/30 28/47/28
f 32/50/31 31/51/32 30/48/29
f 35/52/33 32/50/31 34/53/34
f 37/54/35 34/55/34 36/56/36
f 16/35/16 36/56/36 17/36/17
f 38/57/37 14/34/15 17/36/17
f 39/58/38 18/37/18 14/34/15
f 40/59/39 20/39/20 18/37/18
f 20/39/20 42/60/40 22/42/23
f 22/42/23 43/61/41 24/44/25
f 24/44/25 44/62/42 26/46/27
f 44/62/42 28/47/28 26/46/27
f 45/63/43 30/48/29 28/47/28
f 46/64/44 32/50/31 30/48/29
f 32/50/31 48/65/45 34/53/34
f 34/55/34 49/66/46 36/56/36
f 36/56/36 38/57/37 17/36/17
f 50/67/47 52/68/48 53/69/49
f 54/70/50 51/71/51 50/67/47
f 56/72/52 55/73/53 54/70/50
f 59/74/54 56/72/52 58/75/55
f 61/76/56 58/75/55 60/77/57
f 63/78/58 60/77/57 62/79/59
f 65/80/60 62/79/59 64/81/61
f 67/82/62 64/81/61 66/83/63
f 69/84/64 66/83/63 68/85/65
f 70/86/66 69/84/64 68/85/65
f 72/87/67 71/88/68 70/89/66
f 53/69/49 73/90/69 72/87/67
f 51/71/51 75/91/70 52/68/48
f 55/73/53 74/92/71 51/71/51
f 57/93/72 76/94/73 55/73/53
f 57/93/72 78/95/74 77/96/75
f 59/74/54 79/97/76 78/95/74
f 61/76/56 80/98/77 79/97/76
f 65/80/60 80/98/77 63/78/58
f 67/82/62 81/99/78 65/80/60
f 69/84/64 82/100/79 67/82/62
f 69/84/64 84/101/80 83/102/81
f 71/88/68 85/103/82 84/104/80
f 73/90/69 75/91/70 85/103/82
f 75/91/70 39/58/38 38/57/37
f 74/92/71 40/59/39 39/58/38
f 76/94/73 41/105/83 40/59/39
f 41/105/83 78/95/74 42/60/40
f 42/60/40 79/97/76 43/61/41
f 43/61/41 80/98/77 44/62/42
f 80/98/77 45/63/43 44/62/42
f 81/99/78 46/64/44 45/63/43
f 82/100/79 47/106/84 46/64/44
f 47/106/84 84/101/80 48/65/45
f 48/107/45 85/103/82 49/66/46
f 49/66/46 75/91/70 38/57/37
f 15/38/19 2/108/3 16/35/16
f 19/40/21 3/109/4 15/38/19
f 21/110/85 4/19/5 19/111/21
f 6/112/7 21/113/85 23/41/22
f 7/25/8 23/41/22 25/43/24
f 8/26/9 25/43/24 27/45/26
f 29/49/30 8/26/9 27/45/26
f 31/51/32 9/27/10 29/49/30
f 33/114/86 10/28/11 31/51/32
f 12/30/13 33/114/86 35/52/33
f 13/115/14 35/116/33 37/54/35
f 37/117/35 2/14/3 13/33/14
f 14/34/15 15/38/19 16/35/16
f 18/37/18 19/40/21 15/38/19
f 20/39/20 21/113/85 19/40/21
f 23/41/22 21/113/85 20/39/20
f 25/43/24 23/41/22 22/42/23
f 27/45/26 25/43/24 24/44/25
f 28/47/28 29/49/30 27/45/26
f 30/48/29 31/51/32 29/49/30
f 32/50/31 33/114/86 31/51/32
f 35/52/33 33/114/86 32/50/31
f 37/54/35 35/116/33 34/55/34
f 16/35/16 37/54/35 36/56/36
f 38/57/37 39/58/38 14/34/15
f 39/58/38 40/59/39 18/37/18
f 40/59/39 41/105/83 20/39/20
f 20/39/20 41/105/83 42/60/40
f 22/42/23 42/60/40 43/61/41
f 24/44/25 43/61/41 44/62/42
f 44/62/42 45/63/43 28/47/28
f 45/63/43 46/64/44 30/48/29
f 46/64/44 47/106/84 32/50/31
f 32/50/31 47/106/84 48/65/45
f 34/55/34 48/107/45 49/66/46
f 36/56/36 49/66/46 38/57/37
f 50/67/47 51/71/51 52/68/48
f 54/70/50 55/73/53 51/71/51
f 56/72/52 57/93/72 55/73/53
f 59/74/54 57/93/72 56/72/52
f 61/76/56 59/74/54 58/75/55
f 63/78/58 61/76/56 60/77/57
f 65/80/60 63/78/58 62/79/59
f 67/82/62 65/80/60 64/81/61
f 69/84/64 67/82/62 66/83/63
f 70/86/66 71/118/68 69/84/64
f 72/87/67 73/90/69 71/88/68
f 53/69/49 52/68/48 73/90/69
f 51/71/51 74/92/71 75/91/70
f 55/73/53 76/94/73 74/92/71
f 57/93/72 77/96/75 76/94/73
f 57/93/72 59/74/54 78/95/74
f 59/74/54 61/76/56 79/97/76
f 61/76/56 63/78/58 80/98/77
f 65/80/60 81/99/78 80/98/77
f 67/82/62 82/100/79 81/99/78
f 69/84/64 83/102/81 82/100/79
f 69/84/64 71/118/68 84/101/80
f 71/88/68 73/90/69 85/103/82
f 73/90/69 52/68/48 75/91/70
f 75/91/70 74/92/71 39/58/38
f 74/92/71 76/94/73 40/59/39
f 76/94/73 77/96/75 41/105/83
f 41/105/83 77/96/75 78/95/74
f 42/60/40 78/95/74 79/97/76
f 43/61/41 79/97/76 80/98/77
f 80/98/77 81/99/78 45/63/43
f 81/99/78 82/100/79 46/64/44
f 82/100/79 83/102/81 47/106/84
f 47/106/84 83/102/81 84/101/80
f 48/107/45 84/104/80 85/103/82
f 49/66/46 85/103/82 75/91/70
f 15/38/19 3/109/4 2/108/3
f 19/40/21 4/119/5 3/109/4
f 21/110/85 5/20/6 4/19/5
f 6/112/7 5/120/6 21/113/85
f 7/25/8 6/112/7 23/41/22
f 8/26/9 7/25/8 25/43/24
f 29/49/30 9/27/10 8/26/9
f 31/51/32 10/28/11 9/27/10
f 33/114/86 11/29/12 10/28/11
f 12/30/13 11/29/12 33/114/86
f 13/115/14 12/121/13 35/116/33
f 37/117/35 16/122/16 2/14/3
